<?xml version="1.0" encoding="utf-8"?>
<svg xmlns="http://www.w3.org/2000/svg">
<title>An umbrella (from http://raphaeljs.com/icons/)</title>
<desc>
	A beautiful little umbrella that is to serve as a favicon.

	It is published under the MIT license which you can read at
	http://raphaeljs.com/license.html.
</desc>
<path d= "M17.081,4.065V3.137c0,0,0.104-0.872-0.881-0.872c-0.928,0-0.891,0.9-0.891,0.9v0.9C4.572,3.925,2.672,15.783,2.672,15.783c1.237-2.98,4.462-2.755,4.462-2.755c4.05,0,4.481,2.681,4.481,2.681c0.984-2.953,4.547-2.662,4.547-2.662c3.769,0,4.509,2.719,4.509,2.719s0.787-2.812,4.557-2.756c3.262,0,4.443,2.7,4.443,2.7v-0.058C29.672,4.348,17.081,4.065,17.081,4.065zM15.328,24.793c0,1.744-1.8,1.801-1.8,1.801c-1.885,0-1.8-1.801-1.8-1.801s0.028-0.928-0.872-0.928c-0.9,0-0.957,0.9-0.957,0.9c0,3.628,3.6,3.572,3.6,3.572c3.6,0,3.572-3.545,3.572-3.545V13.966h-1.744V24.793z"
      fill="#555" />
</svg>
